<svg height= '100px' width='100px' viewBox="0 0 160 160" fill="none" xmlns="http://www.w3.org/2000/svg">
<g filter="url(#filter0_d_1305_4093)">
<circle cx="80" cy="60" r="50" fill="white"/>
</g>
<path fill-rule="evenodd" clip-rule="evenodd" d="M72.8661 52.8661C73.3543 52.378 74.1457 52.378 74.6339 52.8661L80 58.2322L85.3661 52.8661C85.8543 52.378 86.6457 52.378 87.1339 52.8661C87.622 53.3543 87.622 54.1457 87.1339 54.6339L81.7678 60L87.1339 65.3661C87.622 65.8543 87.622 66.6457 87.1339 67.1339C86.6457 67.622 85.8543 67.622 85.3661 67.1339L80 61.7678L74.6339 67.1339C74.1457 67.622 73.3543 67.622 72.8661 67.1339C72.378 66.6457 72.378 65.8543 72.8661 65.3661L78.2322 60L72.8661 54.6339C72.378 54.1457 72.378 53.3543 72.8661 52.8661Z" fill="#F27121" stroke="#F27121" stroke-width="2" stroke-linecap="round" stroke-linejoin="round"/>
<defs>
<filter id="filter0_d_1305_4093" x="0" y="0" width="260" height="260" filterUnits="userSpaceOnUse" color-interpolation-filters="sRGB">
<feFlood flood-opacity="0" result="BackgroundImageFix"/>
<feColorMatrix in="SourceAlpha" type="matrix" values="0 0 0 0 0 0 0 0 0 0 0 0 0 0 0 0 0 0 127 0" result="hardAlpha"/>
<feOffset dy="20"/>
<feGaussianBlur stdDeviation="25"/>
<feColorMatrix type="matrix" values="0 0 0 0 0 0 0 0 0 0 0 0 0 0 0 0 0 0 0.07 0"/>
<feBlend mode="normal" in2="BackgroundImageFix" result="effect1_dropShadow_1305_4093"/>
<feBlend mode="normal" in="SourceGraphic" in2="effect1_dropShadow_1305_4093" result="shape"/>
</filter>
</defs>
</svg>
